<?xml version="1.0" encoding="UTF-8" standalone="no"?>
<!-- Created with Inkscape (http://www.inkscape.org/) -->

<svg
   xmlns:dc="http://purl.org/dc/elements/1.1/"
   xmlns:cc="http://creativecommons.org/ns#"
   xmlns:rdf="http://www.w3.org/1999/02/22-rdf-syntax-ns#"
   xmlns:svg="http://www.w3.org/2000/svg"
   xmlns="http://www.w3.org/2000/svg"
   xmlns:sodipodi="http://sodipodi.sourceforge.net/DTD/sodipodi-0.dtd"
   xmlns:inkscape="http://www.inkscape.org/namespaces/inkscape"
   width="300"
   height="300"
   id="svg2"
   version="1.1"
   inkscape:version="0.48.3.1 r9886"
   sodipodi:docname="dessin.svg">
  <defs
     id="defs4" />
  <sodipodi:namedview
     id="base"
     pagecolor="#ffffff"
     bordercolor="#666666"
     borderopacity="1.0"
     inkscape:pageopacity="0.0"
     inkscape:pageshadow="2"
     inkscape:zoom="1.979899"
     inkscape:cx="221.91047"
     inkscape:cy="132.51351"
     inkscape:document-units="px"
     inkscape:current-layer="layer1"
     showgrid="false"
     inkscape:window-width="1215"
     inkscape:window-height="1000"
     inkscape:window-x="65"
     inkscape:window-y="24"
     inkscape:window-maximized="1" />
  <metadata
     id="metadata7">
    <rdf:RDF>
      <cc:Work
         rdf:about="">
        <dc:format>image/svg+xml</dc:format>
        <dc:type
           rdf:resource="http://purl.org/dc/dcmitype/StillImage" />
        <dc:title />
      </cc:Work>
    </rdf:RDF>
  </metadata>
  <g
     inkscape:label="Calque 1"
     inkscape:groupmode="layer"
     id="layer1"
     transform="translate(0,-752.36218)">
    <path
       style="fill:#000000"
       d="m 174.93312,1041.1178 c 0,-3.3839 -6.03292,-4.268 -29.12212,-4.268 -16.01717,0 -30.28903,-1.2804 -31.71523,-2.8454 -1.42619,-1.5649 -6.88275,-2.8453 -12.12567,-2.8453 -10.307488,0 -17.445093,-7.2476 -21.016372,-21.3401 -2.051854,-8.0967 3.129432,-63.04224 7.378606,-78.24698 1.093351,-3.91236 2.145251,-12.55509 2.33758,-19.20609 0.281531,-9.73747 1.84589,-12.09272 8.032,-12.09272 4.225296,0 10.070216,3.02575 12.988646,6.72389 5.15347,6.53022 4.78811,16.36356 -2.03393,54.74185 l -2.5806,14.51758 19.82924,1.84316 c 10.90613,1.01377 27.00658,1.84318 35.77878,1.84318 8.77224,0 17.11641,1.28041 18.54259,2.84535 1.4262,1.56494 7.95208,2.84534 14.50195,2.84534 l 11.90889,0 2.21021,-23.47409 c 2.75614,-29.27228 7.66156,-45.42841 14.24508,-46.91664 7.54296,-1.70509 11.0982,11.98701 7.44175,28.65977 -1.77313,8.0851 -4.37748,30.00621 -5.78748,48.71359 l -2.5636,34.01341 -18.15781,9.3781 c -19.58518,10.1153 -30.09251,11.8996 -30.09251,5.1101 z m 27.72485,-20.6288 c 4.61776,-4.1253 8.34855,-20.2955 4.79167,-20.76807 -18.64618,-2.47756 -79.73259,-8.22225 -88.2131,-8.29575 -8.62007,-0.0749 -12.67356,1.73907 -15.61612,6.98774 -2.18578,3.89878 -3.01749,8.77928 -1.84832,10.84548 3.23369,5.7148 27.07937,10.5143 52.48052,10.5629 12.52809,0.023 25.61044,1.2847 29.07187,2.8018 9.01392,3.9504 13.01742,3.5085 19.33348,-2.1341 z m -42.94828,-94.02318 2.50352,-42.0957 -27.20545,-18.28568 c -14.96302,-10.05716 -27.20551,-20.06202 -27.20551,-22.23305 0,-7.47336 22.57725,-0.58278 37.57424,11.46763 l 14.49805,11.64949 2.97008,-7.53139 c 1.63354,-4.14229 1.28161,-11.05326 -0.78212,-15.35779 -4.81152,-10.03595 -16.50894,-41.8822 -20.1192,-54.77456 -2.40131,-8.57523 -4.96647,-10.32487 -18.46489,-12.59455 -11.29822,-1.8997 -15.67616,-4.15848 -15.67616,-8.08801 0,-4.87636 2.32652,-5.28921 22.02732,-3.90885 71.11484,4.98269 103.84307,11.02244 103.84307,19.1634 0,4.94305 -1.89393,5.44491 -14.49662,3.84155 -13.36139,-1.69989 -14.73028,-1.20865 -17.48046,6.27311 -1.6411,4.46457 -6.40449,13.23902 -10.58532,19.49878 -7.88213,11.80164 -10.56946,39.75493 -4.08324,42.47349 2.03642,0.85348 8.47037,-0.99156 14.29775,-4.10012 10.24518,-5.46519 19.76085,-7.39357 19.76085,-4.00459 0,0.90601 -8.49625,7.40913 -18.88055,14.45136 -18.85686,12.78795 -18.88061,12.82966 -18.91224,33.20816 -0.0538,34.53806 -11.61305,73.043 -21.92788,73.043 -2.67332,0 -3.26453,-15.03592 -1.65524,-42.09568 z M 179.0976,800.73725 c 6.21782,-10.17994 3.16479,-17.12317 -7.5292,-17.12317 -11.63075,0 -12.63969,1.86074 -7.74807,14.289 5.32876,13.53906 8.39173,14.10731 15.27727,2.83417 z"
       id="path3002"
       inkscape:connector-curvature="0" />
  </g>
</svg>


