<?xml version="1.0" encoding="UTF-8" standalone="no"?>
<!-- Created with Inkscape (http://www.inkscape.org/) -->

<svg
   xmlns:dc="http://purl.org/dc/elements/1.1/"
   xmlns:cc="http://creativecommons.org/ns#"
   xmlns:rdf="http://www.w3.org/1999/02/22-rdf-syntax-ns#"
   xmlns:svg="http://www.w3.org/2000/svg"
   xmlns="http://www.w3.org/2000/svg"
   xmlns:sodipodi="http://sodipodi.sourceforge.net/DTD/sodipodi-0.dtd"
   xmlns:inkscape="http://www.inkscape.org/namespaces/inkscape"
   width="300"
   height="300"
   viewBox="0 0 300 300"
   id="svg2"
   version="1.1"
   inkscape:version="0.91 r13725"
   sodipodi:docname="教-oracle.svg">
  <defs
     id="defs4" />
  <sodipodi:namedview
     id="base"
     pagecolor="#ffffff"
     bordercolor="#666666"
     borderopacity="1.0"
     inkscape:pageopacity="0.0"
     inkscape:pageshadow="2"
     inkscape:zoom="1.2432572"
     inkscape:cx="133.16179"
     inkscape:cy="151.18248"
     inkscape:document-units="px"
     inkscape:current-layer="layer1"
     showgrid="false"
     units="px"
     inkscape:window-width="985"
     inkscape:window-height="605"
     inkscape:window-x="98"
     inkscape:window-y="14"
     inkscape:window-maximized="0" />
  <metadata
     id="metadata7">
    <rdf:RDF>
      <cc:Work
         rdf:about="">
        <dc:format>image/svg+xml</dc:format>
        <dc:type
           rdf:resource="http://purl.org/dc/dcmitype/StillImage" />
        <dc:title></dc:title>
      </cc:Work>
    </rdf:RDF>
  </metadata>
  <g
     inkscape:label="Layer 1"
     inkscape:groupmode="layer"
     id="layer1"
     transform="translate(0,-752.36216)">
    <path
       style="fill:#000000"
       d="m 105.61053,1027.12 c -2.61802,-6.1649 -6.014063,-16.3551 -7.546593,-22.6446 -2.62548,-10.77414 -8.04385,-20.36411 -17.60821,-31.16479 -8.818616,-9.95856 -1.574366,-15.36838 8.2826,-6.18528 6.99134,6.51329 8.97089,5.98815 8.97089,-2.37988 0,-5.93819 -0.95552,-7.13928 -5.67934,-7.13928 -4.57598,0 -5.89771,-1.48723 -6.802844,-7.65437 -0.617851,-4.20969 0.365574,-11.21772 2.185444,-15.5734 1.81996,-4.35567 2.73583,-8.84615 2.03574,-9.97935 -5.354711,-8.66373 22.516033,-15.75104 36.049273,-9.16723 5.86858,2.85511 6.69201,4.54763 6.50785,13.37659 -0.17309,8.294 -1.67541,11.48225 -8.37221,17.7678 -7.19538,6.75334 -16.245,27.92937 -11.90943,27.86783 0.79975,-0.008 5.39843,-3.75944 10.21983,-8.32926 9.80881,-9.29797 15.5279,-11.1454 11.56185,-3.73444 -1.34639,2.51553 -3.84454,5.99583 -5.55151,7.73421 -1.7068,1.73809 -6.60806,8.28161 -10.89173,14.5411 l -7.7884,11.38082 2.08144,20.29913 c 1.14458,11.164 1.39117,20.7247 0.54832,21.246 -0.84316,0.5208 -3.67495,-4.0968 -6.29297,-10.2616 z m 7.41242,-88.49327 c 3.35724,-1.2765 6.10437,-3.95374 6.10437,-5.94952 0,-5.36455 -12.477,-4.68045 -15.94601,0.87453 -4.472593,7.16164 -0.72694,9.0931 9.84164,5.07499 z m 104.20858,74.30957 c -1.43498,-4.9083 -4.33589,-20.16741 -6.44645,-33.90924 -4.05203,-26.37978 -6.90624,-32.86239 -11.15343,-25.3319 -8.31043,14.73592 -23.55314,24.2144 -16.80748,10.45185 1.4425,-2.94311 3.95766,-9.3064 5.5893,-14.14088 2.76917,-8.20457 2.58146,-9.10912 -2.81743,-13.58253 -3.18115,-2.6363 -7.65804,-4.23107 -9.94862,-3.54377 -2.92553,0.87738 -4.16444,-0.0729 -4.16444,-3.19472 0,-2.44456 -1.1569,-5.6008 -2.57058,-7.01447 -1.83715,-1.83728 -1.84093,-5.19795 -0.009,-11.7801 1.4065,-5.06534 2.67669,-20.45385 2.82262,-34.1974 0.46779,-44.0764 2.87269,-67.82411 6.86848,-67.82411 5.80504,0 10.20164,12.85871 10.30366,30.13414 0.0519,8.91955 -0.63068,16.94348 -1.51836,17.8311 -0.88766,0.88755 -1.61377,7.31599 -1.61377,14.28536 0,13.28504 0.84319,14.59985 19.93306,31.08576 7.38057,6.37383 10.33526,16.41775 6.5928,22.41061 -3.23027,5.17218 -3.61983,13.9518 -0.61933,13.9518 6.00582,0 10.05319,17.7332 11.4047,49.96939 1.41778,33.81531 -0.61109,42.29001 -5.84121,24.39911 z m -21.95059,-94.76677 c 0,-7.33004 -5.88762,-13.9086 -10.77057,-12.03475 -4.86048,1.86514 -4.40717,12.63472 0.65626,15.58388 6.90935,4.02429 10.11431,2.8998 10.11431,-3.54913 z M 90.785337,899.89614 c 0.11844,-1.63614 3.10779,-8.32242 6.64261,-14.85841 l 6.427083,-11.88374 -9.022423,-13.58342 c -4.96227,-7.47074 -9.02233,-14.171 -9.02233,-14.88891 0,-3.64297 13.17286,-0.53024 21.734903,5.13596 l 9.73379,6.44156 4.27854,-5.84658 c 2.35319,-3.21574 7.00404,-9.00663 10.33473,-12.86881 5.35356,-6.20761 6.24419,-6.53201 7.67792,-2.7961 1.98077,5.16205 -2.61623,21.39903 -7.41757,26.20049 -3.72942,3.72949 -4.68737,10.06372 -1.72124,11.38205 3.51392,1.56161 17.25353,20.81013 17.25353,24.17094 0,2.83703 -1.35369,2.96365 -7.84088,0.73348 -4.31265,-1.48261 -10.70033,-4.56931 -14.19518,-6.85886 -8.74936,-5.73308 -11.11831,-5.27122 -21.65796,4.2211 -9.647633,8.68891 -13.564923,10.26088 -13.205523,5.29925 z m 9.303793,-73.89267 c 0,-1.70155 1.2849,-4.37908 2.85569,-5.94926 1.57066,-1.57067 2.12321,-2.85587 1.22795,-2.85587 -0.89496,0 0.55028,-4.17857 3.21218,-9.28536 l 4.83988,-9.28542 -6.06784,-12.5783 c -3.33735,-6.91769 -6.06786,-13.98389 -6.06786,-15.70227 0,-5.33191 7.04945,-3.45022 15.00269,4.00408 4.18289,3.9205 8.67963,7.13314 9.99279,7.13929 1.31306,0.004 5.59667,-3.38939 9.51916,-7.54545 6.07211,-6.43417 7.25477,-6.91794 7.96127,-3.25698 0.45629,2.36489 -0.24984,6.56827 -1.56905,9.34139 -4.81026,10.11034 -5.06118,13.73297 -1.63346,23.57175 4.03797,11.59039 4.63119,23.11649 1.18983,23.11649 -1.30511,0 -6.48493,-3.71509 -11.51056,-8.2551 l -9.13777,-8.25577 -8.12265,9.39133 c -8.50788,9.83696 -11.69225,11.58152 -11.69225,6.40545 z"
       id="path3477"
       inkscape:connector-curvature="0" />
  </g>
</svg>


